<svg id="SvgjsSvg1372" width="100%" height="100%" xmlns="http://www.w3.org/2000/svg" version="1.1" xlink="http://www.w3.org/1999/xlink" xmlns:svgjs="http://svgjs.com/svgjs" preserveAspectRatio="xMidYMid meet" viewBox="0 0.000005735858849220676 143.83836364746094 147.00001525878906" overflow="visible"><defs id="SvgjsDefs1373"></defs><g id="SvgjsG1374" transform="scale(1.1700117063869184)" opacity="1"><g id="SvgjsG1375" class="GzheISp6iz" transform="translate(21.714332538939892, -12.009143406967572) scale(0.8282172495035636)" light-content="false" non-strokable="false" fill="#050505"><path d="M46 70.484V20.571c0-3.906-3.73-6.071-6-6.071H14a2 2 0 0 0-2 2v50h24.047c2.978 0 7.341.784 9.953 3.984zM22 26.5h14a2 2 0 0 1 0 4H22a2 2 0 0 1 0-4zm0 8h14a2 2 0 0 1 0 4H22a2 2 0 0 1 0-4zm0 8h14a2 2 0 0 1 0 4H22a2 2 0 0 1 0-4zm0 12a2 2 0 0 1 0-4h14a2 2 0 0 1 0 4z"></path><path d="M90 22.5h-2v48H62c-5.341 0-10.894 2.18-14 6.988-3.106-4.808-8.659-6.988-14-6.988H8v-48H6a1.999 1.999 0 0 0-2 2v48a2 2 0 0 0 2 2h20c10.914 0 14.432-.758 20.4 7.2a1.998 1.998 0 0 0 3.2 0c5.968-7.958 9.486-7.2 20.4-7.2h20a2 2 0 0 0 2-2v-48a1.999 1.999 0 0 0-2-2z"></path><path d="M84 66.5v-50a2 2 0 0 0-2-2H56c-2.27 0-6 2.165-6 6.07v49.914c2.612-3.2 6.975-3.984 9.953-3.984zm-17-38a2 2 0 1 1-2 2 2 2 0 0 1 2-2zm-2 10a2 2 0 0 1 4 0v12a2 2 0 0 1-4 0z"></path></g><g id="SvgjsG1376" class="text" transform="translate(63.08714294433594, 112.90139291521689) scale(1)" light-content="false" fill="#050505"><path d="M-19.67 -22.29C-20.26 -22.84 -20.63 -22.84 -20.79 -22.29C-21.23 -20.81 -21.48 -19.61 -21.52 -18.69C-21.56 -17.77 -21.51 -17.24 -21.37 -17.08C-19.18 -14.78 -17.89 -12.87 -17.48 -11.37C-23.33 -7.6 -31.36 -5.63 -41.56 -5.48C-51.75 -5.32 -58.01 -7.82 -60.34 -12.98C-60.65 -13.66 -60.68 -14.47 -60.42 -15.4C-60.17 -16.32 -59.75 -17.19 -59.17 -17.99C-59.03 -18.18 -59.01 -18.41 -59.11 -18.66C-59.2 -18.92 -59.38 -19.08 -59.65 -19.16C-59.91 -19.24 -60.15 -19.14 -60.37 -18.87C-61.58 -17.21 -62.37 -15.64 -62.74 -14.18C-63.64 -10.66 -62.79 -7.6 -60.19 -4.98C-56.19 -0.92 -49.43 0.87 -39.92 0.4C-30.41 -0.08 -22.78 -2.19 -17.04 -5.92C-16.02 -6.56 -15.47 -7.97 -15.38 -10.15C-15.29 -12.33 -15.64 -14.58 -16.44 -16.89C-17.23 -19.2 -18.31 -21.01 -19.67 -22.29ZM-40.65 -30.35L-42.23 -27.16C-43.48 -28.02 -44.8 -28.67 -46.19 -29.12C-46.42 -29.2 -46.58 -29.16 -46.66 -29L-48.82 -24.64C-48.88 -24.5 -48.82 -24.38 -48.65 -24.29C-45.87 -22.76 -44.32 -21.88 -43.99 -21.65C-43.66 -21.42 -43.45 -21.39 -43.37 -21.56L-41.76 -25.14C-39.54 -23.93 -38.28 -23.21 -37.98 -23C-37.65 -22.76 -37.45 -22.73 -37.37 -22.91L-35.29 -27.45C-35.21 -27.65 -35.28 -27.82 -35.49 -27.98C-36.94 -29.09 -38.5 -29.92 -40.18 -30.47C-40.42 -30.55 -40.57 -30.51 -40.65 -30.35Z M-12.44 -43.21L-13.78 -40.11C-13.96 -39.72 -13.93 -39.2 -13.7 -38.55C-12.5 -35.25 -11.5 -32.32 -10.69 -29.75C-9.88 -27.18 -9.05 -23.82 -8.2 -19.67C-7.35 -15.52 -6.41 -11.4 -5.38 -7.29C-4.15 -2.43 -0.9 0 4.35 0C4.78 0 5 -1.07 5 -3.22C4.98 -4.63 4.44 -5.36 3.38 -5.42C-0.35 -5.63 -2.69 -7.6 -3.65 -11.31C-4.1 -13.03 -5.26 -18.06 -7.13 -26.4C-8.13 -30.81 -9.55 -36.11 -11.38 -42.3C-11.77 -43.61 -12.12 -43.92 -12.44 -43.21Z M18.03 -5.42C16.45 -5.71 14.86 -6.76 13.26 -8.55C13.16 -8.67 13.07 -8.92 12.98 -9.29C12.89 -9.66 12.68 -9.84 12.35 -9.84C12.02 -9.84 11.77 -9.68 11.62 -9.35C10.52 -7.06 7.78 -5.75 3.38 -5.42C2.97 -5.38 2.68 -5.14 2.49 -4.69C2.3 -4.24 2.3 -3.81 2.48 -3.4L3.44 -0.91C3.68 -0.28 3.98 0.02 4.35 0C7.96 -0.25 10.46 -1.46 11.85 -3.63C14.47 -1.19 16.85 0.02 19 0C19.45 0 19.62 -1.1 19.53 -3.31C19.49 -3.94 19.4 -4.4 19.26 -4.72C19.13 -5.03 18.72 -5.26 18.03 -5.42ZM15.1 3.84L13.52 7.03C12.27 6.17 10.95 5.52 9.57 5.07C9.33 4.99 9.17 5.03 9.1 5.19L6.93 9.55C6.87 9.69 6.93 9.8 7.1 9.9C9.88 11.43 11.43 12.3 11.76 12.54C12.09 12.77 12.3 12.8 12.38 12.63L13.99 9.05C16.22 10.26 17.48 10.98 17.77 11.19C18.1 11.43 18.31 11.46 18.38 11.28L20.46 6.74C20.54 6.54 20.47 6.37 20.26 6.21C18.81 5.1 17.25 4.27 15.57 3.72C15.34 3.64 15.18 3.68 15.1 3.84Z M29.9 -5.42C27.69 -5.89 25.76 -8.15 24.1 -12.22C23.45 -13.84 21.85 -20.74 19.29 -32.93C18.57 -36.27 17.95 -38.91 17.45 -40.84C17.29 -41.54 17.05 -41.65 16.71 -41.16L15.34 -39.14C15.18 -38.95 15.16 -38.59 15.28 -38.09L21.11 -10.93C21.4 -9.54 21.31 -8.42 20.84 -7.56C20.28 -6.54 19.34 -5.83 18.03 -5.42C16.68 -5.01 16.74 -3.43 18.21 -0.67C18.44 -0.22 18.71 0 19 0C21.77 -0.04 23.11 -2.28 23.01 -6.71C22.95 -7.72 23.18 -7.79 23.69 -6.91C26.17 -2.58 28.56 -0.27 30.86 0C31.31 0.04 31.35 -1.18 30.98 -3.66C30.81 -4.72 30.44 -5.3 29.9 -5.42Z M43.81 -22.73C42.97 -22.73 42.02 -22.27 40.94 -21.33C38.09 -18.87 36.34 -15.98 35.7 -12.66C35.29 -10.62 35.39 -8.72 35.99 -6.94C34.14 -6.26 32.1 -5.75 29.9 -5.42C29.39 -5.34 29.12 -4.86 29.08 -3.97C29.04 -3.08 29.2 -2.19 29.58 -1.3C29.95 -0.42 30.38 0.02 30.86 0C31.59 -0.02 33.05 -0.42 35.26 -1.22C37.47 -2.01 39.23 -2.75 40.56 -3.46C46.01 -0.82 50.35 0.33 53.57 0C54.23 -0.06 54.22 -1.37 53.54 -3.93C53.29 -4.9 52.97 -5.4 52.6 -5.42C50.73 -5.5 48.47 -6 45.83 -6.91C46.48 -8.18 46.98 -9.46 47.33 -10.75C48.09 -13.41 47.93 -16.27 46.86 -19.34C46.29 -20.94 45.48 -22.03 44.43 -22.62C44.25 -22.7 44.05 -22.73 43.81 -22.73ZM42.23 -16.41C44.05 -16.02 45.18 -14.28 45.63 -11.19C44.42 -9.67 43.23 -8.91 42.06 -8.91C40.88 -8.91 39.76 -9.5 38.67 -10.69C37.59 -11.88 37.22 -12.76 37.57 -13.33C38.76 -15.54 40.32 -16.56 42.23 -16.41ZM37.87 -40.02L36.28 -36.83C35.03 -37.69 33.72 -38.34 32.33 -38.79C32.09 -38.87 31.94 -38.83 31.86 -38.67L29.69 -34.31C29.63 -34.17 29.69 -34.05 29.87 -33.96C32.64 -32.43 34.19 -31.55 34.53 -31.32C34.86 -31.08 35.06 -31.05 35.14 -31.23L36.75 -34.8C38.98 -33.59 40.24 -32.88 40.53 -32.67C40.86 -32.43 41.07 -32.4 41.15 -32.58L43.23 -37.12C43.31 -37.31 43.24 -37.49 43.02 -37.65C41.58 -38.76 40.01 -39.59 38.33 -40.14C38.1 -40.22 37.94 -40.18 37.87 -40.02Z M54.92 -12.69C54.76 -12.2 54.9 -11.71 55.33 -11.22C56.38 -10.05 57.12 -8.89 57.55 -7.73C57.63 -7.54 57.65 -7.4 57.61 -7.32C56.66 -5.96 54.99 -5.32 52.6 -5.42C51.45 -5.46 51.18 -4.67 51.78 -3.05C52.54 -1.02 53.14 0 53.57 0C57.46 0 59.54 -1.96 59.81 -5.89C60.06 -10.01 59.15 -13.53 57.06 -16.44C56.53 -17.18 56.16 -17.17 55.94 -16.41ZM52.46 -29.88L50.29 -25.52C50.23 -25.38 50.29 -25.26 50.46 -25.17C53.24 -23.64 54.79 -22.76 55.12 -22.53C55.45 -22.29 55.66 -22.27 55.74 -22.44L57.82 -26.98C57.88 -27.18 57.81 -27.35 57.61 -27.51C56.17 -28.62 54.6 -29.45 52.92 -30C52.69 -30.08 52.53 -30.04 52.46 -29.88Z"></path></g></g></svg>